<?xml version="1.0" encoding="iso-8859-1"?>
<!-- Generator: Adobe Illustrator 19.0.0, SVG Export Plug-In . SVG Version: 6.00 Build 0)  -->
<svg version="1.1" id="Capa_1" xmlns="http://www.w3.org/2000/svg" x="0px" y="0px"
     viewBox="0 0 512 512" style="enable-background:new 0 0 512 512;" xml:space="preserve">
<g>
	<path style="fill:#D8D8E4;" d="M22.564,339.442L22.564,339.442L22.564,339.442z"/>
    <path style="fill:#D8D8E4;" d="M156.753,304.122L156.753,304.122c-27.302-27.302-71.567-27.302-98.868,0l-35.32,35.32
		l33.629-12.321c21.839-8.001,46.336-2.598,62.783,13.849l0,0c15.96,15.96,21.56,39.552,14.476,60.982l-12.019,36.358l35.32-35.32
		C184.055,375.688,184.055,331.424,156.753,304.122z"/>
</g>
    <rect x="166.751" y="159.885" transform="matrix(0.7071 -0.7071 0.7071 0.7071 -72.8863 239.7869)"
          style="fill:#B3B6C3;" width="172.508" height="95.979"/>
    <g>
	
		<rect x="149.475" y="262.483" transform="matrix(0.7071 -0.7071 0.7071 0.7071 -151.4956 207.2233)"
              style="fill:#898998;" width="49.837" height="48"/>
        <polygon style="fill:#898998;" points="395.411,99.405 330.964,163.852 297.023,129.911 368.88,58.054 	"/>
</g>
    <circle style="fill:#D8D8E4;" cx="409.99" cy="50" r="40"/>
    <g>
	<rect x="385.99" y="86.5" style="fill:#898998;" width="48" height="136.75"/>
        <rect x="317.99" y="414" style="fill:#898998;" width="184" height="88"/>
</g>
    <path style="fill:#B3B6C3;" d="M409.993,222L409.993,222c41.974,0,76,34.026,76,76v116h-152V298
	C333.993,256.026,368.02,222,409.993,222z"/>
    <circle style="fill:#4DBAF6;" cx="410.21" cy="298" r="40"/>
    <path d="M501.994,404h-6V298c0-35.349-21.443-65.773-52-78.979V86.615c9.833-9.137,16-22.166,16-36.615c0-27.57-22.43-50-50-50
	s-50,22.43-50,50c0,0.913,0.028,1.82,0.077,2.721l-63.047,63.047l-9.893-9.893c-3.906-3.905-10.236-3.905-14.143,0L151.004,227.859
	c-3.905,3.905-3.905,10.237,0,14.143l9.893,9.892l-26.499,26.498c-28.216-10.116-61.021-3.905-83.585,18.658l-35.32,35.32
	c-3.318,3.318-3.883,8.498-1.356,12.453c2.525,3.956,7.458,5.621,11.868,4.008l33.629-12.321c18.116-6.637,38.631-2.11,52.271,11.53
	c13.369,13.368,17.986,32.823,12.052,50.772l-12.019,36.358c-1.454,4.399,0.305,9.221,4.248,11.652c1.622,1,3.438,1.487,5.244,1.487
	c2.584,0,5.145-1,7.074-2.929l35.32-35.32c22.563-22.563,28.773-55.369,18.658-83.585l26.498-26.498l9.892,9.892
	c1.953,1.953,4.512,2.929,7.071,2.929s5.119-0.977,7.071-2.929L355,187.887c1.875-1.875,2.929-4.419,2.929-7.071
	s-1.054-5.196-2.929-7.071l-9.893-9.893l30.887-30.887v86.056c-30.557,13.205-52,43.63-52,78.979v106h-6c-5.522,0-10,4.477-10,10v78
	H171.736c-5.522,0-10,4.477-10,10s4.478,10,10,10h330.258c5.522,0,10-4.477,10-10v-88C511.994,408.477,507.516,404,501.994,404z
	 M409.994,20c16.542,0,30,13.458,30,30s-13.458,30-30,30s-30-13.458-30-30S393.452,20,409.994,20z M149.682,395.919l-5.68,5.68
	c6.643-24.173-0.074-49.819-17.955-67.7c-13.278-13.277-31.198-20.395-49.417-20.395c-5.276,0-10.583,0.599-15.802,1.816
	l4.127-4.127c23.359-23.359,61.367-23.359,84.727,0S173.042,372.56,149.682,395.919z M172.838,307.836
	c-2.646-3.788-5.635-7.407-9.013-10.785s-6.998-6.368-10.786-9.013l22-22l19.798,19.799L172.838,307.836z M225.944,288.657
	l-25.491-25.492l55.979-55.98c3.905-3.905,3.905-10.237,0-14.143c-3.906-3.905-10.236-3.905-14.143,0l-55.979,55.98l-14.092-14.092
	l107.841-107.842l9.888,9.888c0.002,0.002,0.003,0.004,0.005,0.005l33.941,33.941l9.893,9.893L225.944,288.657z M330.964,149.709
	l-19.799-19.799l55.319-55.319c2.544,4.484,5.757,8.538,9.509,12.024v18.064L330.964,149.709z M395.994,97.991
	c4.446,1.299,9.14,2.009,14,2.009s9.554-0.71,14-2.009v115.167c-4.559-0.75-9.232-1.158-14-1.158s-9.441,0.408-14,1.158V97.991z
	 M343.994,298c0-36.393,29.607-66,66-66s66,29.607,66,66v106h-132V298z M327.994,492v-68h164v68H327.994z"/>
    <path d="M410.215,248c-27.57,0-50,22.43-50,50s22.43,50,50,50s50-22.43,50-50S437.786,248,410.215,248z M410.215,328
	c-16.542,0-30-13.458-30-30s13.458-30,30-30s30,13.458,30,30S426.757,328,410.215,328z"/>
    <path d="M89.01,492H10.006c-5.522,0-10,4.477-10,10s4.478,10,10,10H89.01c5.522,0,10-4.477,10-10S94.533,492,89.01,492z"/>
    <path d="M132.006,492c-2.641,0-5.21,1.07-7.07,2.93s-2.93,4.44-2.93,7.07s1.069,5.21,2.93,7.07s4.43,2.93,7.07,2.93
	c2.63,0,5.21-1.07,7.069-2.93c1.86-1.86,2.931-4.44,2.931-7.07s-1.07-5.21-2.931-7.07C137.216,493.07,134.636,492,132.006,492z"/>
    <path d="M275.526,163.95c-2.64,0-5.21,1.07-7.069,2.93c-1.87,1.86-2.931,4.44-2.931,7.07s1.061,5.21,2.931,7.07
	c1.859,1.86,4.43,2.93,7.069,2.93c2.63,0,5.21-1.07,7.07-2.93c1.86-1.86,2.93-4.44,2.93-7.07s-1.069-5.21-2.93-7.07
	S278.156,163.95,275.526,163.95z"/>
    <g>
</g>
    <g>
</g>
    <g>
</g>
    <g>
</g>
    <g>
</g>
    <g>
</g>
    <g>
</g>
    <g>
</g>
    <g>
</g>
    <g>
</g>
    <g>
</g>
    <g>
</g>
    <g>
</g>
    <g>
</g>
    <g>
</g>
</svg>
